<?xml version="1.0" encoding="utf-8"?>
<!-- Generator: Adobe Illustrator 19.2.1, SVG Export Plug-In . SVG Version: 6.00 Build 0)  -->
<svg version="1.1" id="bit_workshop_logo" xmlns="http://www.w3.org/2000/svg" xmlns:xlink="http://www.w3.org/1999/xlink" x="0px"
	 y="0px" viewBox="0 0 500 500" style="enable-background:new 0 0 500 500;" xml:space="preserve">
<style type="text/css">
	.st0{fill:#EAA22F;}
</style>
<title>Bit Workshop</title>
<path class="st0" d="M495,246l-38-21.4c-2.5-20.2-8-39.9-16.2-58.6l21.5-39.9c1.8-3.5,0.7-8.9-2.7-12.1l-78.4-75.9
	c-3.3-3.2-8.8-4.3-12.2-2.3L331.5,58c-7.7-3.3-15.5-6.1-23.5-8.4c-11.6-3.3-23.4-5.7-35.4-7L248.9,4.2c-2.1-3.3-7.4-5-11.8-3.7
	l-105,29.9c-4.4,1.3-8.1,5.5-8,9.4l0.5,43.6c-16.3,12.3-30.7,26.9-42.8,43.3l-45.2,1.3c-3.9,0.1-8,3.9-9.2,8.3L0.8,242.3
	c-1.1,4.5,0.7,9.8,4.1,11.7l38,21.4c2.5,20.2,7.9,40,16.2,58.6l-21.5,39.9c-1.9,3.5-0.7,8.9,2.7,12.1l78.4,75.9
	c3.3,3.2,8.8,4.3,12.2,2.3l37.6-22.2c18.8,8,38.6,13.2,58.9,15.4l23.7,38.4c2.1,3.3,7.4,5,11.8,3.8l105-30c4.5-1.2,8.1-5.4,8.1-9.4
	l-0.5-43.6c16.3-12.3,30.7-26.8,42.8-43.3l45.2-1.3c3.9-0.1,8-3.9,9.2-8.4l26.6-105.9C500.3,253.2,498.4,247.9,495,246z M250,357.2
	c-59.2,0-107.2-48-107.2-107.2c0-59.2,48-107.2,107.2-107.2c59.2,0,107.2,48,107.2,107.2c0,0,0,0,0,0
	C357.1,309.2,309.2,357.1,250,357.2z M320,250c0,38.7-31.3,70-70,70s-70-31.3-70-70s31.3-70,70-70l0,0C288.6,180,320,211.4,320,250z
	 M245.2,87.6l-5.2,0.1l-0.1-4.7l10.4-2.4l0.7,35.3l-5.2,0.1L245.2,87.6z M287.4,91.9l-5.1-1.3l1.1-4.6l10.7,0.3l-8.5,34.3l-5-1.3
	L287.4,91.9z M327,107l-4.6-2.5l2.3-4.1l10.2,3.1l-17,31l-4.5-2.5L327,107z M351.4,124.4c0.9-1,1.9-1.9,3-2.7c0.7-0.6,1.5-1,2.4-1.2
	c0.7-0.2,1.5-0.1,2.2,0.3c0.8,0.4,1.6,1,2.2,1.6l12,11.5c0.7,0.6,1.3,1.3,1.7,2.1c0.3,0.7,0.5,1.4,0.3,2.2c-0.2,0.9-0.6,1.7-1.2,2.4
	c-0.8,1.1-1.7,2.1-2.6,3.1L358.6,157c-0.9,1-1.9,1.9-3,2.7c-0.7,0.6-1.5,1-2.4,1.2c-0.7,0.2-1.5,0.1-2.2-0.3c-0.8-0.4-1.6-1-2.2-1.6
	l-12-11.5c-0.7-0.6-1.3-1.3-1.7-2.1c-0.4-0.7-0.5-1.4-0.3-2.2c0.2-0.9,0.6-1.7,1.1-2.5c0.8-1.1,1.7-2.1,2.6-3.1L351.4,124.4z
	 M353.5,154.9l15.8-16.4l-12.7-12.2l-15.8,16.4L353.5,154.9z M380.4,155c1.1-0.7,2.4-1.3,3.6-1.9c0.8-0.4,1.7-0.6,2.6-0.5
	c0.7,0,1.4,0.3,2,0.8c0.7,0.6,1.3,1.3,1.7,2.1l8.7,14.2c0.5,0.8,0.9,1.6,1.1,2.5c0.2,0.7,0.1,1.5-0.2,2.2c-0.4,0.8-1,1.5-1.7,2.1
	c-1,0.9-2.2,1.6-3.3,2.3l-15.8,9.6c-1.1,0.7-2.4,1.3-3.6,1.9c-0.8,0.4-1.7,0.6-2.6,0.5c-0.7,0-1.4-0.3-2-0.8
	c-0.7-0.6-1.3-1.3-1.7-2.1l-8.6-14.2c-0.5-0.8-0.9-1.6-1.1-2.5c-0.2-0.7-0.1-1.5,0.2-2.2c0.4-0.8,1-1.5,1.7-2.1
	c1-0.9,2.2-1.6,3.3-2.3L380.4,155z M374.6,185l19.5-11.8l-9.1-15l-19.5,11.7L374.6,185z M400.5,192c1.3-0.4,2.6-0.7,4-0.9
	c0.9-0.1,1.8-0.1,2.7,0.2c0.7,0.2,1.3,0.7,1.8,1.3c0.5,0.7,0.8,1.6,1.1,2.4l4.6,16c0.3,0.9,0.4,1.8,0.4,2.7c0,0.7-0.3,1.4-0.8,2
	c-0.6,0.7-1.4,1.2-2.2,1.6c-1.2,0.6-2.5,1-3.8,1.4l-17.8,5.1c-1.3,0.4-2.6,0.7-4,0.9c-0.9,0.1-1.8,0.1-2.7-0.2
	c-0.7-0.2-1.3-0.7-1.8-1.3c-0.5-0.8-0.9-1.6-1.1-2.5l-4.6-16c-0.3-0.9-0.4-1.8-0.4-2.7c0-0.7,0.3-1.4,0.8-2c0.6-0.7,1.4-1.2,2.2-1.6
	c1.2-0.6,2.5-1,3.8-1.4L400.5,192z M387.1,219.5l21.9-6.4l-4.9-16.9l-21.9,6.3L387.1,219.5z M412.3,245.3l-0.1-5.3l4.7-0.1l2.5,10.4
	L384,251l-0.1-5.2L412.3,245.3z M409.3,275c1.3,0.3,2.6,0.7,3.9,1.2c0.9,0.3,1.6,0.8,2.3,1.5c0.5,0.6,0.8,1.3,0.9,2
	c0.1,0.9,0,1.8-0.3,2.7l-4,16.1c-0.2,0.9-0.5,1.8-1,2.5c-0.4,0.6-1,1.1-1.7,1.4c-0.9,0.3-1.8,0.4-2.7,0.3c-1.4-0.1-2.7-0.4-4-0.7
	l-18-4.5c-1.3-0.3-2.6-0.7-3.9-1.2c-0.9-0.3-1.6-0.8-2.3-1.5c-0.5-0.6-0.8-1.3-0.9-2c-0.1-0.9,0-1.8,0.3-2.7L382,274
	c0.2-0.9,0.5-1.8,1-2.5c0.4-0.6,1-1.1,1.7-1.4c0.9-0.3,1.8-0.4,2.7-0.3c1.4,0.1,2.7,0.4,4,0.7L409.3,275z M384,292.1l22.1,5.5
	l4.2-17l-22.1-5.5L384,292.1z M392.9,327l2.5-4.6l4.1,2.3l-3.1,10.2l-31-17l2.5-4.5L392.9,327z M368,361.4l3.6-3.8l3.4,3.3l-5.6,9.1
	L344,345.4l3.6-3.7L368,361.4z M335.1,388.2l4.5-2.7l2.4,4l-7.8,7.3L316,366.5l4.4-2.7L335.1,388.2z M307.9,400.5
	c0.4,1.3,0.7,2.6,0.9,4c0.1,0.9,0.1,1.8-0.2,2.7c-0.2,0.7-0.7,1.3-1.3,1.8c-0.8,0.5-1.6,0.9-2.5,1.1l-16,4.6
	c-0.9,0.3-1.8,0.4-2.7,0.4c-0.7,0-1.4-0.3-2-0.8c-0.7-0.6-1.2-1.4-1.6-2.2c-0.6-1.2-1-2.5-1.4-3.8l-5.1-17.8c-0.4-1.3-0.7-2.6-0.9-4
	c-0.1-0.9-0.1-1.8,0.2-2.7c0.2-0.7,0.7-1.3,1.3-1.8c0.8-0.5,1.6-0.9,2.5-1.1l16-4.6c0.9-0.3,1.8-0.4,2.7-0.4c0.7,0,1.4,0.3,2,0.8
	c0.7,0.6,1.2,1.4,1.6,2.2c0.6,1.2,1,2.5,1.4,3.8L307.9,400.5z M280.4,387.1l6.4,21.9l16.9-4.9l-6.3-21.9L280.4,387.1z M254.6,412.3
	l5.2-0.1l0.1,4.7l-10.4,2.5l-0.6-35.3l5.2-0.1L254.6,412.3z M224.8,409.3c-0.3,1.3-0.7,2.6-1.2,3.9c-0.3,0.9-0.8,1.6-1.5,2.3
	c-0.6,0.5-1.3,0.8-2,0.9c-0.9,0.1-1.8,0-2.7-0.3l-16.1-4c-0.9-0.2-1.8-0.5-2.5-1c-0.6-0.4-1.1-1-1.4-1.7c-0.3-0.9-0.4-1.8-0.3-2.7
	c0.1-1.4,0.4-2.7,0.7-4l4.5-18c0.3-1.3,0.7-2.6,1.2-3.9c0.3-0.9,0.8-1.6,1.5-2.3c0.6-0.5,1.3-0.8,2-0.9c0.9-0.1,1.8,0,2.7,0.3
	l16.1,4c0.9,0.2,1.8,0.5,2.5,1c0.6,0.4,1.1,1,1.4,1.7c0.3,0.9,0.4,1.8,0.3,2.7c-0.1,1.4-0.4,2.7-0.7,4L224.8,409.3z M207.7,384
	l-5.5,22.1l17,4.2l5.5-22.1L207.7,384z M184.5,397.4c-0.6,1.2-1.4,2.3-2.2,3.4c-0.5,0.7-1.2,1.3-2,1.8c-0.7,0.3-1.4,0.5-2.2,0.3
	c-0.9-0.2-1.8-0.5-2.6-1l-14.6-8c-0.8-0.4-1.6-1-2.2-1.6c-0.5-0.5-0.8-1.3-0.9-2c0-0.9,0.1-1.8,0.4-2.7c0.5-1.3,1.1-2.5,1.7-3.7
	l8.9-16.2c0.6-1.2,1.4-2.3,2.2-3.4c0.5-0.7,1.2-1.3,2-1.8c0.7-0.3,1.4-0.5,2.2-0.3c0.9,0.2,1.8,0.5,2.6,1l14.6,8
	c0.8,0.4,1.6,1,2.2,1.6c0.5,0.5,0.8,1.3,0.9,2c0,0.9-0.1,1.8-0.4,2.7c-0.5,1.3-1.1,2.5-1.7,3.7L184.5,397.4z M174.5,368.5l-11,20
	l15.4,8.5l11-20L174.5,368.5z M138.5,368l3.8,3.6L139,375l-9.1-5.6l24.5-25.4l3.7,3.6L138.5,368z M111.7,335.2l2.7,4.5l-4,2.4
	l-7.3-7.8l30.3-18.3l2.7,4.4L111.7,335.2z M94.4,296.5l1.5,5l-4.5,1.3l-5.1-9.4l34-9.8l1.4,5L94.4,296.5z M87.6,254.6l0.1,5.2
	l-4.7,0.1l-2.4-10.4l35.4-0.7l0.1,5.2L87.6,254.6z M91.9,212.4l-1.3,5.1l-4.6-1.1l0.3-10.7l34.3,8.5l-1.3,5L91.9,212.4z
	 M102.5,184.4c-1.2-0.6-2.3-1.4-3.4-2.2c-0.7-0.5-1.3-1.2-1.8-2c-0.3-0.7-0.5-1.4-0.3-2.2c0.2-0.9,0.5-1.8,1-2.6l8-14.6
	c0.4-0.8,1-1.6,1.6-2.2c0.5-0.5,1.3-0.8,2-0.9c0.9,0,1.8,0.1,2.7,0.4c1.3,0.5,2.5,1.1,3.7,1.7l16.2,8.9c1.2,0.6,2.3,1.4,3.4,2.2
	c0.7,0.5,1.3,1.2,1.8,2c0.3,0.7,0.5,1.4,0.3,2.2c-0.2,0.9-0.5,1.8-1,2.6l-8,14.6c-0.4,0.8-1,1.6-1.6,2.2c-0.5,0.5-1.3,0.8-2,0.9
	c-0.9,0-1.8-0.1-2.7-0.4c-1.3-0.5-2.5-1.1-3.7-1.7L102.5,184.4z M131.4,174.4l-20-11l-8.5,15.4l20,11L131.4,174.4z M131.8,138.4
	l-3.6,3.8l-3.4-3.2l5.6-9.1l25.5,24.5l-3.6,3.7L131.8,138.4z M155,119.4c-0.7-1.1-1.3-2.4-1.9-3.6c-0.4-0.8-0.6-1.7-0.5-2.7
	c0-0.7,0.3-1.4,0.8-2c0.6-0.7,1.3-1.3,2.1-1.7l14.2-8.6c0.8-0.5,1.6-0.9,2.5-1.1c0.7-0.2,1.5-0.1,2.2,0.2c0.8,0.4,1.5,1,2.1,1.7
	c0.9,1,1.6,2.2,2.3,3.3l9.5,15.9c0.7,1.1,1.3,2.4,1.9,3.6c0.4,0.8,0.5,1.7,0.5,2.7c0,0.7-0.3,1.4-0.8,2c-0.6,0.7-1.3,1.3-2.1,1.7
	l-14.2,8.6c-0.8,0.5-1.6,0.9-2.5,1.1c-0.7,0.2-1.5,0.1-2.2-0.2c-0.8-0.4-1.5-1-2.1-1.7c-0.9-1-1.6-2.2-2.3-3.3L155,119.4z
	 M185,125.2l-11.8-19.4l-15,9.1l11.8,19.5L185,125.2z M192,99.3c-0.4-1.3-0.7-2.6-0.9-4c-0.1-0.9-0.1-1.8,0.2-2.7
	c0.2-0.7,0.7-1.3,1.3-1.8c0.8-0.5,1.6-0.9,2.5-1.1l16-4.6c0.9-0.3,1.8-0.4,2.7-0.4c0.7,0,1.4,0.3,2,0.8c0.7,0.6,1.2,1.4,1.6,2.2
	c0.6,1.2,1,2.5,1.4,3.8l5.1,17.8c0.4,1.3,0.7,2.6,0.9,4c0.1,0.9,0.1,1.8-0.2,2.7c-0.2,0.7-0.7,1.3-1.3,1.8c-0.8,0.5-1.6,0.9-2.5,1.1
	l-16,4.6c-0.9,0.3-1.8,0.4-2.7,0.4c-0.7,0-1.4-0.3-2-0.8c-0.7-0.6-1.2-1.4-1.6-2.2c-0.6-1.2-1-2.5-1.4-3.8L192,99.3z M219.5,112.6
	l-6.3-21.9l-16.9,4.9l6.3,21.9L219.5,112.6z"/>
</svg>
