<svg id="bit_workshop_logo" data-name="bit_workshop_logo" xmlns="http://www.w3.org/2000/svg" viewBox="0 0 500 500"><defs><style>.cls-1{fill:#eaa22f;}</style></defs><title>Bit Workshop</title>
<g>
  <path class="cls-1" d="M495,246l-38-21.4c-2.5-20.2-8-39.9-16.2-58.6l21.5-39.9c1.8-3.5,0.7-8.9-2.7-12.1l-78.4-75.9
	c-3.3-3.2-8.8-4.3-12.2-2.3L331.5,58c-7.7-3.3-15.5-6.1-23.5-8.4c-11.6-3.3-23.4-5.7-35.4-7L248.9,4.2c-2.1-3.3-7.4-5-11.8-3.7
	l-105,29.9c-4.4,1.3-8.1,5.5-8,9.4l0.5,43.6c-16.3,12.3-30.7,26.9-42.8,43.3l-45.2,1.3c-3.9,0.1-8,3.9-9.2,8.3L0.8,242.3
	c-1.1,4.5,0.7,9.8,4.1,11.7l38,21.4c2.5,20.2,7.9,40,16.2,58.6l-21.5,39.9c-1.9,3.5-0.7,8.9,2.7,12.1l78.4,75.9
	c3.3,3.2,8.8,4.3,12.2,2.3l37.6-22.2c18.8,8,38.6,13.2,58.9,15.4l23.7,38.4c2.1,3.3,7.4,5,11.8,3.8l105-30c4.5-1.2,8.1-5.4,8.1-9.4
	l-0.5-43.6c16.3-12.3,30.7-26.8,42.8-43.3l45.2-1.3c3.9-0.1,8-3.9,9.2-8.4l26.6-105.9C500.3,253.2,498.4,247.9,495,246z M250,357.2
	c-59.2,0-107.2-48-107.2-107.2c0-59.2,48-107.2,107.2-107.2c59.2,0,107.2,48,107.2,107.2c0,0,0,0,0,0
	C357.1,309.2,309.2,357.1,250,357.2z M320,250c0,38.7-31.3,70-70,70s-70-31.3-70-70s31.3-70,70-70l0,0C288.6,180,320,211.4,320,250z
	"/>
  <animateTransform attributeName="transform" begin="0s" dur="20s" type="rotate" from="0 250 250" to="360 250 250" repeatCount="indefinite"/>
</g>
</svg>
