<svg id="bit_workshop_logo" data-name="bit_workshop_logo" xmlns="http://www.w3.org/2000/svg" viewBox="0 0 500 500"><defs><style>.cls-1{fill:#eaa22f;}</style></defs><title>Bit Workshop</title>
<g>
  <path class="cls-1" d="M495,246l-38-21.42A209.34,209.34,0,0,0,440.81,166l21.53-39.9c1.82-3.46.68-8.9-2.66-12.13L381.25,38.07c-3.34-3.23-8.78-4.25-12.19-2.27L331.49,58A202.25,202.25,0,0,0,308,49.63a211.06,211.06,0,0,0-35.36-7L248.92,4.18c-2.1-3.34-7.37-5-11.84-3.74l-105,29.92c-4.42,1.25-8.1,5.5-8,9.41l0.51,43.64a208.3,208.3,0,0,0-42.78,43.35l-45.17,1.3c-3.91.11-8,3.85-9.18,8.33L0.82,242.25c-1.13,4.54.74,9.8,4.14,11.73l38,21.36a206.37,206.37,0,0,0,16.21,58.6l-21.54,39.9c-1.87,3.46-.68,8.89,2.66,12.13l78.43,75.94c3.29,3.23,8.79,4.31,12.19,2.27L168.51,442a208.6,208.6,0,0,0,58.88,15.41l23.69,38.43c2.1,3.34,7.37,5,11.85,3.8l105-30c4.48-1.24,8.11-5.43,8.11-9.41l-0.51-43.63a208.21,208.21,0,0,0,42.79-43.3l45.16-1.3c3.91-.12,8-3.86,9.18-8.38l26.58-105.86C500.31,253.19,498.44,247.92,495,246ZM250,357.21A107.21,107.21,0,1,1,357.2,250,107.34,107.34,0,0,1,250,357.21ZM320,250a70,70,0,1,1-70-70A70.08,70.08,0,0,1,320,250ZM245.2,87.6l-5.24.1L239.87,83l10.38-2.45,0.7,35.35-5.19.1Zm42.19,4.33-5.08-1.26,1.13-4.55,10.66,0.33-8.52,34.32-5-1.25ZM327,107l-4.59-2.52,2.26-4.11,10.22,3.06-17,31-4.55-2.5Zm24.35,17.41a25.73,25.73,0,0,1,3-2.73,6.36,6.36,0,0,1,2.42-1.21,3.34,3.34,0,0,1,2.17.25,8.5,8.5,0,0,1,2.21,1.61l12,11.52a8.48,8.48,0,0,1,1.7,2.15,3.35,3.35,0,0,1,.33,2.16A6.4,6.4,0,0,1,374,140.6a25.67,25.67,0,0,1-2.61,3.1L358.57,157a25.88,25.88,0,0,1-3,2.73,6.38,6.38,0,0,1-2.42,1.21,3.33,3.33,0,0,1-2.17-.25,8.5,8.5,0,0,1-2.21-1.61l-12-11.52a8.44,8.44,0,0,1-1.7-2.15,3.32,3.32,0,0,1-.33-2.16,6.34,6.34,0,0,1,1.12-2.46,26.11,26.11,0,0,1,2.62-3.1Zm2.17,30.49,15.8-16.42-12.66-12.18L340.84,142.7ZM380.37,155a25.61,25.61,0,0,1,3.6-1.86,6.38,6.38,0,0,1,2.65-.54,3.36,3.36,0,0,1,2,.8,8.53,8.53,0,0,1,1.72,2.13L399,169.72a8.52,8.52,0,0,1,1.08,2.52,3.34,3.34,0,0,1-.24,2.17,6.42,6.42,0,0,1-1.72,2.09,25.68,25.68,0,0,1-3.33,2.31l-15.84,9.55a25.81,25.81,0,0,1-3.6,1.86,6.35,6.35,0,0,1-2.65.54,3.33,3.33,0,0,1-2-.8,8.49,8.49,0,0,1-1.72-2.13l-8.58-14.23a8.49,8.49,0,0,1-1.08-2.52,3.35,3.35,0,0,1,.24-2.17,6.36,6.36,0,0,1,1.72-2.09,25.8,25.8,0,0,1,3.33-2.31Zm-5.81,30,19.51-11.76-9.07-15L365.5,169.93Zm25.92,7a26,26,0,0,1,4-.87,6.42,6.42,0,0,1,2.7.16,3.35,3.35,0,0,1,1.76,1.3A8.5,8.5,0,0,1,410,195l4.62,16a8.48,8.48,0,0,1,.4,2.71,3.36,3.36,0,0,1-.79,2,6.42,6.42,0,0,1-2.2,1.58,25.85,25.85,0,0,1-3.82,1.38l-17.77,5.15a25.58,25.58,0,0,1-4,.87,6.38,6.38,0,0,1-2.7-.16,3.35,3.35,0,0,1-1.76-1.3,8.45,8.45,0,0,1-1.11-2.5l-4.62-16a8.44,8.44,0,0,1-.4-2.71,3.34,3.34,0,0,1,.79-2,6.37,6.37,0,0,1,2.2-1.58,25.86,25.86,0,0,1,3.81-1.38Zm-13.34,27.51L409,213.09l-4.89-16.87-21.88,6.34Zm25.13,25.76L412.18,240l4.69-.09,2.45,10.38-35.36.7-0.1-5.19ZM409.34,275a25.83,25.83,0,0,1,3.86,1.23,6.41,6.41,0,0,1,2.26,1.49,3.37,3.37,0,0,1,.87,2,8.54,8.54,0,0,1-.29,2.72l-4,16.12a8.56,8.56,0,0,1-1,2.54,3.35,3.35,0,0,1-1.71,1.37,6.41,6.41,0,0,1-2.69.26,26,26,0,0,1-4-.72l-18-4.46a26.14,26.14,0,0,1-3.86-1.23,6.41,6.41,0,0,1-2.26-1.49,3.35,3.35,0,0,1-.87-2,8.48,8.48,0,0,1,.29-2.72L382,274a8.46,8.46,0,0,1,1-2.54,3.33,3.33,0,0,1,1.71-1.37,6.38,6.38,0,0,1,2.69-.26,25.73,25.73,0,0,1,4,.72ZM384,292.14l22.11,5.5,4.24-17-22.11-5.49ZM392.9,327l2.53-4.59,4.11,2.26-3.06,10.21-31-17,2.5-4.55ZM368,361.42l3.63-3.77,3.38,3.26L369.44,370,344,345.44l3.6-3.74Zm-32.89,26.74,4.49-2.7,2.42,4-7.77,7.3L316,366.49l4.44-2.68Zm-27.21,12.33a25.67,25.67,0,0,1,.87,4,6.36,6.36,0,0,1-.16,2.7,3.34,3.34,0,0,1-1.3,1.76,8.53,8.53,0,0,1-2.5,1.12l-16,4.62a8.48,8.48,0,0,1-2.71.4,3.33,3.33,0,0,1-2-.79,6.39,6.39,0,0,1-1.58-2.2,26,26,0,0,1-1.38-3.81l-5.15-17.77a26.11,26.11,0,0,1-.87-4,6.41,6.41,0,0,1,.16-2.7,3.33,3.33,0,0,1,1.3-1.76,8.5,8.5,0,0,1,2.5-1.11l16-4.62a8.51,8.51,0,0,1,2.71-.4,3.34,3.34,0,0,1,2,.79,6.4,6.4,0,0,1,1.58,2.2,25.74,25.74,0,0,1,1.38,3.81Zm-27.51-13.34L286.78,409l16.87-4.89-6.34-21.88Zm-25.82,25.14,5.24-.1,0.09,4.69-10.38,2.45L248.88,384l5.19-.1Zm-29.79-2.95a25.63,25.63,0,0,1-1.23,3.86,6.39,6.39,0,0,1-1.49,2.26,3.35,3.35,0,0,1-2,.87,8.48,8.48,0,0,1-2.72-.29l-16.12-4a8.55,8.55,0,0,1-2.54-1,3.36,3.36,0,0,1-1.37-1.71,6.4,6.4,0,0,1-.26-2.69,26,26,0,0,1,.72-4l4.46-18a25.84,25.84,0,0,1,1.23-3.86,6.38,6.38,0,0,1,1.49-2.26,3.36,3.36,0,0,1,2-.87,8.53,8.53,0,0,1,2.72.29l16.12,4a8.43,8.43,0,0,1,2.54,1,3.34,3.34,0,0,1,1.37,1.71,6.37,6.37,0,0,1,.26,2.69,25.49,25.49,0,0,1-.72,4ZM207.74,384l-5.5,22.11,17,4.24,5.5-22.11ZM184.48,397.4a25.4,25.4,0,0,1-2.18,3.42,6.37,6.37,0,0,1-2,1.8,3.35,3.35,0,0,1-2.16.32,8.49,8.49,0,0,1-2.56-1l-14.55-8a8.52,8.52,0,0,1-2.2-1.64,3.35,3.35,0,0,1-.88-2,6.39,6.39,0,0,1,.44-2.67,25.8,25.8,0,0,1,1.72-3.67L169,367.76a25.9,25.9,0,0,1,2.18-3.42,6.42,6.42,0,0,1,2-1.8,3.33,3.33,0,0,1,2.16-.32,8.43,8.43,0,0,1,2.56,1l14.55,8a8.51,8.51,0,0,1,2.2,1.64,3.34,3.34,0,0,1,.88,2,6.39,6.39,0,0,1-.44,2.67,25.55,25.55,0,0,1-1.72,3.67Zm-10-28.88-11,20,15.39,8.47,11-20Zm-36-.48,3.77,3.63L139,375l-9.07-5.61L154.44,344l3.74,3.6Zm-26.74-32.88,2.7,4.49-4,2.42-7.3-7.77L133.39,316l2.68,4.44ZM94.38,296.51l1.46,5-4.51,1.31-5.06-9.39,34-9.84,1.44,5ZM87.6,254.61l0.1,5.23-4.69.09-2.45-10.38,35.36-.69,0.1,5.19Zm4.35-42.19-1.27,5.08-4.55-1.13,0.34-10.66,34.32,8.53-1.25,5Zm10.53-28a25.9,25.9,0,0,1-3.42-2.18,6.4,6.4,0,0,1-1.8-2,3.34,3.34,0,0,1-.32-2.16,8.49,8.49,0,0,1,1-2.56l8-14.55a8.49,8.49,0,0,1,1.64-2.2,3.35,3.35,0,0,1,2-.88,6.38,6.38,0,0,1,2.67.44,25.67,25.67,0,0,1,3.67,1.72L132.11,169a25.84,25.84,0,0,1,3.42,2.18,6.39,6.39,0,0,1,1.8,2,3.34,3.34,0,0,1,.32,2.16,8.47,8.47,0,0,1-1,2.56l-8,14.55a8.46,8.46,0,0,1-1.64,2.2,3.34,3.34,0,0,1-2,.88,6.37,6.37,0,0,1-2.67-.44,25.9,25.9,0,0,1-3.67-1.72Zm28.88-10-20-11-8.47,15.39,20,11Zm0.48-36-3.63,3.77L124.83,139l5.62-9.07,25.47,24.53-3.6,3.74Zm23.13-19a25.39,25.39,0,0,1-1.86-3.6,6.32,6.32,0,0,1-.54-2.65,3.34,3.34,0,0,1,.8-2,8.48,8.48,0,0,1,2.13-1.72l14.23-8.58a8.49,8.49,0,0,1,2.52-1.08,3.34,3.34,0,0,1,2.17.24,6.38,6.38,0,0,1,2.09,1.72,25.92,25.92,0,0,1,2.31,3.33L188.37,121a26,26,0,0,1,1.86,3.6,6.43,6.43,0,0,1,.54,2.65,3.33,3.33,0,0,1-.8,2,8.46,8.46,0,0,1-2.13,1.72l-14.23,8.58a8.46,8.46,0,0,1-2.52,1.08,3.34,3.34,0,0,1-2.17-.24,6.38,6.38,0,0,1-2.09-1.72,25.87,25.87,0,0,1-2.31-3.33Zm30,5.81L173.22,105.8l-15,9.07,11.76,19.51Zm7-25.94a25.59,25.59,0,0,1-.87-4,6.39,6.39,0,0,1,.16-2.7,3.35,3.35,0,0,1,1.3-1.76,8.51,8.51,0,0,1,2.5-1.11l16-4.62a8.5,8.5,0,0,1,2.71-.4,3.35,3.35,0,0,1,2,.79,6.42,6.42,0,0,1,1.58,2.2,26.1,26.1,0,0,1,1.38,3.82l5.14,17.77a26.05,26.05,0,0,1,.87,4,6.38,6.38,0,0,1-.16,2.7,3.35,3.35,0,0,1-1.3,1.76,8.5,8.5,0,0,1-2.5,1.11l-16,4.62a8.47,8.47,0,0,1-2.71.39,3.33,3.33,0,0,1-2-.79,6.41,6.41,0,0,1-1.58-2.2,25.76,25.76,0,0,1-1.38-3.82Zm27.5,13.35-6.33-21.88-16.87,4.88,6.33,21.88Z"/>
  <animateTransform attributeName="transform" begin="0s" dur="20s" type="rotate" from="0 250 250" to="360 250 250" repeatCount="indefinite"/>
</g>
</svg>